<svg width="26" height="17" viewBox="0 0 26 17" fill="none" xmlns="http://www.w3.org/2000/svg"><path d="M24.244 13.46l.008-.013.007-.014.308-.614a.414.414 0 00.018-.47.51.51 0 00-.442-.242H21.454a.447.447 0 00-.209.04.445.445 0 00-.099.07l-.07.067-.003.003a2.26 2.26 0 01-1.644.677c-1.159 0-2.082-.732-2.457-1.857h7.492a.785.785 0 00.566-.22.785.785 0 00.22-.566v-.214c0-3.343-2.567-6.036-5.821-6.036-3.255 0-5.822 2.693-5.822 6.036 0 3.343 2.567 6.036 5.822 6.036 1.912 0 3.7-1.012 4.815-2.683zM11.51 7.154c.375-.642.56-1.374.56-2.19 0-2.4-2.053-4.214-4.321-4.214H1.536A.785.785 0 00.97.97a.785.785 0 00-.221.566v13.607c0 .217.074.418.22.565.147.147.348.22.566.22h6.857c2.702 0 4.964-2.14 4.964-4.857 0-1.601-.71-3.006-1.846-3.917zM3.929 4.036H7.75c.599 0 1.036.517 1.036 1.035 0 .6-.518 1.036-1.036 1.036H3.929V4.036zM8.5 12.75H3.929V9.393H8.5a1.67 1.67 0 011.679 1.678A1.67 1.67 0 018.5 12.75zm10.929-5.393c.716 0 1.375.329 1.863.893h-3.765c.444-.553 1.17-.893 1.902-.893zM16.75 3.93h4.929c.46 0 .678-.327.678-.572V2.071a.68.68 0 00-.207-.471.68.68 0 00-.471-.207H16.75a.68.68 0 00-.471.207.679.679 0 00-.208.471V3.25c0 .188.092.356.208.471a.68.68 0 00.471.208z" stroke="#fff" stroke-width=".5"/></svg>