<svg width="118" height="16" viewBox="0 0 118 16" fill="none" xmlns="http://www.w3.org/2000/svg"><g clip-path="url(#clip0)"><path d="M52.965 1.012c.87.384 1.598.996 2.091 1.76.516.83.774 1.775.748 2.731a4.865 4.865 0 01-.748 2.702 4.759 4.759 0 01-2.09 1.761 7.537 7.537 0 01-3.123.607h-9.156v4.053H37.87V.405h11.97a7.538 7.538 0 013.124.606zm-4.247 7.26c.66.009 1.32-.039 1.97-.141.56-.1 1.069-.362 1.453-.75.419-.403.627-1.03.626-1.88-.001-.85-.21-1.48-.626-1.89a2.68 2.68 0 00-1.453-.76c-.651-.101-1.31-.148-1.97-.14h-8.031v5.562h8.031zM61.824.405V12.32h11.883v2.306H59.011V.405h2.813zM98.08 14.625h-3.186L92.98 11.55H81.73l-1.915 3.075H76.61L85.565.405h3.564l8.95 14.22zM87.341 2.55l-4.225 6.775h8.45L87.342 2.55zM107.239 7.727L114.28.405h3.718l-9.264 9.548v4.672h-3.013V9.953L96.457.405h3.718l7.064 7.322z" fill="#fff"/><path d="M32.466 7.533v-.019-.028a.335.335 0 000-.09c-.021-.222-.1-.436-.231-.623a1.445 1.445 0 00-.52-.452l-3.958-2.263a1.58 1.58 0 00-.95-.317 1.56 1.56 0 00-1.054.401c-.28.257-.437.606-.437.97v4.805c0 .27.085.533.246.758.16.224.39.4.66.506.268.106.566.136.854.087a1.54 1.54 0 00.764-.361l3.878-2.195a1.45 1.45 0 00.525-.46 1.3 1.3 0 00.228-.633.34.34 0 00-.005-.086z" fill="#00B9D2"/><path d="M12.912 8.028l.011-.01-.05-.049-1.805 1.658 2.728 2.533c-1.011.373-2.288.56-3.828.56-4.622 0-6.933-1.74-6.933-5.22 0-1.794.59-3.108 1.773-3.943 1.181-.836 2.901-1.254 5.16-1.255 4.62 0 6.93 1.733 6.93 5.198 0 .277-.017.555-.05.83l2.452 2.263a7.515 7.515 0 00.613-3.093c0-2.346-.836-4.184-2.509-5.512C15.731.659 13.252-.005 9.968-.005c-3.307 0-5.794.664-7.46 1.993C.84 3.316.005 5.155 0 7.503c0 2.347.836 4.188 2.508 5.522 1.671 1.334 4.158 2.002 7.46 2.003 2.327 0 4.27-.351 5.83-1.052l2.18 2.026 1.79-1.646-6.856-6.328z" fill="#fff"/></g><defs><clipPath id="clip0"><path fill="#fff" d="M0 0h118v16H0z"/></clipPath></defs></svg>