<svg width="16" height="16" viewBox="0 0 16 16" fill="none" xmlns="http://www.w3.org/2000/svg"><path d="M10.033 3.333a3.333 3.333 0 012.634 2.633l-2.634-2.633zm0-2.666a6 6 0 015.3 5.293l-5.3-5.293zm4.634 10.613v2a1.332 1.332 0 01-1.454 1.333 13.193 13.193 0 01-5.753-2.046 13 13 0 01-4-4 13.193 13.193 0 01-2.047-5.78A1.333 1.333 0 012.74 1.333h2A1.333 1.333 0 016.073 2.48a8.56 8.56 0 00.467 1.873 1.333 1.333 0 01-.3 1.407l-.847.846a10.667 10.667 0 004 4l.847-.846a1.333 1.333 0 011.407-.3 8.56 8.56 0 001.873.466 1.333 1.333 0 011.147 1.354z" stroke="#fff" stroke-width=".5" stroke-linecap="round" stroke-linejoin="round"/></svg>