<svg width="20" height="21" viewBox="0 0 20 21" fill="none" xmlns="http://www.w3.org/2000/svg"><path d="M13.333 2.498v4.938h5M19.167 1.675l-5.834 5.761M18.333 14.778v2.469a1.627 1.627 0 01-.54 1.22 1.671 1.671 0 01-1.276.426 16.625 16.625 0 01-7.192-2.527 16.152 16.152 0 01-5-4.938 16.159 16.159 0 01-2.558-7.136 1.627 1.627 0 01.429-1.258 1.666 1.666 0 011.229-.536h2.5a1.68 1.68 0 011.103.398c.307.26.507.622.564 1.018.105.79.3 1.566.583 2.312A1.627 1.627 0 017.8 7.963L6.742 9.008a13.252 13.252 0 005 4.938l1.058-1.045a1.687 1.687 0 011.758-.37c.756.278 1.542.472 2.342.576.405.056.774.258 1.039.566.264.308.404.701.394 1.105z" stroke="#fff" stroke-width=".5" stroke-linecap="round" stroke-linejoin="round"/></svg>