<svg width="83" height="37" viewBox="0 0 83 37" fill="none" xmlns="http://www.w3.org/2000/svg"><path d="M70.14 9.52L66.81 14c-1.3 1.72-2.61 3.42-3.89 5.16a5.41 5.41 0 00-.73 1.36 1.68 1.68 0 001.22 2.27c.354.087.716.134 1.08.14h6.27a2.67 2.67 0 002.63-1.24c.269-.523.41-1.102.41-1.69V7.61a2.61 2.61 0 00-2.89-2.86H59.25c-.05-.806-.05-1.614 0-2.42a2.27 2.27 0 012.26-1.9c3.8 0 7.6-.07 11.39 0 1.91.038 3.776.58 5.41 1.57a8.41 8.41 0 014.16 6.89c.216 3.33.216 6.67 0 10A8.83 8.83 0 0174.55 27c-3.91.52-7.85.18-11.77.26a10.399 10.399 0 01-1.55-.19 6.53 6.53 0 01-4.15-2.63c-1-1.25-2-2.55-2.93-3.84a3.23 3.23 0 010-4.42c1.55-2.15 3.15-4.26 4.75-6.37a1 1 0 01.68-.34h10.43c-.01-.03-.01 0 .13.05zM4.53 36.19V13.81H0a17.18 17.18 0 01.15-2.54 2.24 2.24 0 012.31-1.83h22.22a7 7 0 015.71 3.09c.92 1.2 1.84 2.42 2.73 3.65a3.07 3.07 0 01.09 4.12c-1.61 2.25-3.29 4.45-5 6.66a.79.79 0 01-.56.27h-10.7l2.15-2.88 5.25-7c0-.05.09-.1.13-.16a2.26 2.26 0 00.42-2.41 2.19 2.19 0 00-2.22-1H13.4v22.41H4.53zM55.74 9.43l-4.42 5.87c-2.88 3.86-5.78 7.713-8.7 11.56a1.07 1.07 0 01-.71.38H31.62a2.095 2.095 0 01-.28-.05l2.45-3.29c3.507-4.666 7.02-9.333 10.54-14 .16-.234.403-.399.68-.46 3.52-.01 7.04-.01 10.73-.01z" fill="#666"/></svg>