<svg width="24" height="14" viewBox="0 0 24 14" fill="none" xmlns="http://www.w3.org/2000/svg"><mask id="a" fill="#fff"><path d="M23.777 12.113c0-.092-.095-.092-.095-.185-.382-.74-1.242-1.664-2.388-2.681-.573-.463-.86-.833-1.05-1.018-.287-.37-.287-.647-.191-1.017.095-.277.477-.74 1.146-1.572.382-.462.573-.74.86-1.017 1.432-1.849 2.1-3.051 1.909-3.606l-.095-.092C23.777.832 23.682.74 23.49.74c-.191-.093-.478-.093-.764 0H18.43l-.096.092c-.095.093-.095.093-.095.185-.382 1.017-.86 1.85-1.337 2.774-.287.462-.573.925-.86 1.295-.286.37-.477.647-.668.832-.191.185-.382.277-.478.462-.095.093-.286.185-.286.093-.095 0-.191 0-.191-.093l-.286-.277c-.096-.093-.096-.278-.191-.463v-.462-.555-.555-1.017-.832-.647-.555c0-.092-.096-.277-.096-.37L13.56.37c-.096-.093-.287-.093-.382-.185A8.834 8.834 0 0011.458 0c-1.527 0-2.577.092-2.96.277-.19.093-.381.185-.477.37-.19.185-.19.278-.095.278.477.092.86.277 1.05.554l.096.185c.095.093.095.278.19.555.096.278.096.555.096.925v1.48c0 .462-.095.739-.095 1.016 0 .278-.096.463-.191.555-.096.185-.096.278-.191.278 0 0 0 .092-.096.092-.095 0-.19.093-.382.093-.095 0-.286-.093-.382-.185a1.133 1.133 0 01-.477-.463c-.191-.185-.382-.462-.573-.832-.191-.37-.478-.74-.669-1.294l-.19-.37a12.887 12.887 0 01-.478-1.017c-.191-.463-.382-.833-.573-1.295a1.282 1.282 0 00-.286-.37h-.096S4.584.74 4.488.74c-.095 0-.19-.093-.286-.093H.764C.382.647.19.74.095.832L0 .925v.185c0 .092 0 .185.095.37.478 1.109 1.05 2.219 1.624 3.328.573 1.017 1.146 1.942 1.528 2.59.477.647.86 1.294 1.337 1.849.477.554.763.924.859 1.11l.382.369.286.277c.191.185.478.463.86.74.382.278.86.555 1.337.832.477.278 1.05.463 1.623.648.668.184 1.241.277 1.814.184h1.433a.88.88 0 00.668-.277l.096-.092c0-.093.095-.093.095-.185v-.37c0-.37 0-.647.096-.925.095-.277.095-.462.19-.647.096-.185.191-.277.287-.37l.191-.185h.095c.191-.092.478 0 .669.185.286.185.573.462.764.74.19.277.477.555.86.925.381.37.668.647.859.74l.286.184c.191.093.382.185.669.277.286.093.477.093.668.093l3.247-.092c.286 0 .573-.093.764-.185.19-.093.286-.185.286-.37v-.37c-.19-.185-.19-.277-.19-.37z"/></mask><path d="M23.682 11.928h.5v-.121l-.056-.108-.444.23zm-2.388-2.681l.332-.374-.009-.008-.009-.008-.314.39zm-1.05-1.018l-.395.307.021.028.026.025.348-.36zm-.191-1.017l-.473-.162-.006.018-.005.02.484.124zm1.146-1.572l-.386-.318-.004.005.39.313zm.86-1.017l.347.36.026-.025.021-.029-.395-.306zm1.909-3.606l.473-.163-.04-.113-.085-.083-.348.36zm-.095-.092l.347-.36-.347.36zM23.49.74l-.218.45.103.05h.115v-.5zm-.764 0v.5h.078l.075-.024-.153-.476zm-4.297 0v-.5h-.203l-.145.14.348.36zm-.096.092l-.348-.359.348.36zm-.095.185l.468.176.032-.085v-.09h-.5zm-1.337 2.774l.425.263.01-.016.009-.018-.444-.229zm-2.006 2.59l.348.358.06-.057.037-.072-.444-.23zm-.286.092h.5v-.5h-.5v.5zm-.191-.093h.5v-.212l-.152-.147-.348.36zm-.477-.74h-.5v.122l.055.108.445-.23zM13.846.647h.5V.435l-.152-.147-.348.36zm-.668-.462l.347-.36-.106-.103-.146-.028-.095.49zM8.02.647l.348.36.059-.058.037-.072-.444-.23zm-.095.278L8.02.434l-.047-.01h-.048v.5zm1.05.554l.444-.229-.014-.028-.018-.026-.412.283zm.096.185l-.445.23.038.073.059.057.348-.36zm0 4.531l-.348-.359-.06.057-.037.073.445.23zm-.191.278v-.5h-.5v.5h.5zm-.86 0l.348-.36-.058-.055-.072-.035-.218.45zm-.477-.463l.444-.23-.038-.072-.058-.057-.348.36zM6.302 3.884l.473-.163-.012-.035-.016-.032-.445.23zm-.19-.37l.444-.23-.445.23zM5.06 1.202l.462-.19-.008-.02-.01-.02-.444.23zm-.286-.37l.347-.359-.145-.14h-.202v.5zm-.096 0l-.348.36.146.14h.202v-.5zm-4.584 0L-.252.473l.347.36zM0 .925l-.348-.36L-.5.713v.212H0zm.095.554l.46-.197-.007-.016L.54 1.25l-.445.23zM1.72 4.81l-.444.229.004.008.004.008.436-.246zm1.528 2.588l-.43.254.012.022.015.021.403-.297zm2.196 2.96l-.444.229.037.072.06.057.347-.359zm.382.369l-.348.36.348-.36zm.286.277l.348-.359-.348.36zm3.82 2.22l-.154.475.01.004.01.002.134-.481zm1.814.184v-.5h-.04l-.04.007.08.494zm2.101-.277l.348.36-.348-.36zm.096-.092l.347.359.153-.148v-.211h-.5zm.859-2.682v-.5h-.202l-.146.141.348.36zm.095 0v.5h.115l.103-.05-.218-.45zm.669.185l-.348.36.035.034.042.026.27-.42zm2.483 2.404l.27-.42-.025-.017-.027-.013-.218.45zm.286.185l-.271.42.026.017.027.013.218-.45zm1.337.37v.5h.014l-.014-.5zm3.247-.092v-.5h-.015l.015.5zm1.05-.925h.5v-.212l-.152-.147-.348.359zm.31-.37a.61.61 0 00-.162-.412c-.017-.02-.035-.036-.039-.04-.008-.007-.002-.002.004.005a.37.37 0 01.085.154.39.39 0 01.016.108h-1a.61.61 0 00.16.412c.018.02.035.036.04.04l-.005-.005a.368.368 0 01-.084-.154.39.39 0 01-.016-.108h1zm-.152-.414c-.428-.83-1.352-1.807-2.5-2.826l-.664.748c1.144 1.015 1.94 1.886 2.275 2.537l.889-.46zm-2.518-2.842c-.556-.448-.764-.743-1.016-.987l-.696.719c.13.126.495.571 1.084 1.047l.628-.779zm-.969-.934c-.104-.135-.13-.218-.14-.275a.792.792 0 01.038-.31l-.968-.25a1.76 1.76 0 00-.058.706c.039.266.156.507.338.742l.79-.613zm-.113-.548c.018-.054.09-.18.285-.44.184-.246.44-.56.778-.981l-.78-.627c-.33.412-.6.744-.798 1.007-.187.249-.354.492-.43.716l.945.325zm1.058-1.416c.414-.5.562-.725.822-.977l-.696-.718c-.312.303-.546.634-.897 1.058l.771.637zm.87-1.03c.721-.931 1.267-1.72 1.608-2.358.171-.319.301-.617.373-.888.07-.265.1-.557.006-.829l-.946.326c.002.005.02.072-.027.247-.044.167-.135.39-.287.671-.302.565-.807 1.301-1.518 2.22l.79.611zM24.316.658L24.22.565l-.695.719.095.092.696-.718zM24.22.565c-.103-.1-.325-.325-.73-.325v1c.007 0 .005 0-.003-.002a.089.089 0 01-.02-.008c-.004-.002-.002-.002.008.007a.578.578 0 01.05.047l.695-.719zM23.71.29C23.36.12 22.93.148 22.573.264l.307.952c.216-.07.358-.043.393-.026l.436-.9zm-.982-.05h-3.629v1h3.629v-1zm-3.629 0h-.001-.001-.003-.001-.001-.001-.001-.001-.001-.001-.006-.001-.001-.001-.001-.001-.001-.003-.001-.001-.003-.001-.002-.001-.002-.001-.002-.001-.002-.002-.002-.002-.002-.002-.001-.001-.001-.002-.001-.001-.001-.002-.001-.002-.001-.002-.001-.002-.001-.002-.001-.001-.002-.001-.002-.002-.001-.002-.001-.002-.002-.002-.001H19 19h-.001-.001-.001-.002-.002-.001-.001-.001-.002-.001-.002-.001-.001-.002-.001-.001-.001-.003-.001-.001-.001-.001-.001-.001-.001-.001-.001-.001-.001-.001-.001-.001-.001-.001-.001-.001-.003-.001-.001-.001-.002-.001-.001-.002-.001-.004-.004-.001-.004-.001-.008-.005-.001-.001-.005-.003-.003-.003-.003-.003-.001-.003-.001-.003-.001-.003-.001-.001-.003-.002-.001-.005-.001-.001-.001-.005-.002-.001-.001-.001-.001-.001-.001-.001H18.832h-.001-.001-.001-.001-.001-.001-.001-.001-.002-.006-.001-.001-.001-.001v1H19.099v-1zm-.286 0h-.001-.001-.004-.001-.004-.001-.002-.001-.001-.001-.002-.001-.001-.001-.002-.001-.001-.001-.002-.001-.001-.001-.004-.001-.003-.001-.001-.001-.004-.001-.001-.003-.001-.001-.001-.001-.003-.001-.001-.001-.001-.001-.004-.001-.001-.001-.001-.001-.001-.001-.006-.001-.001-.001-.001-.001-.001-.001-.001-.001-.001-.001-.001-.001-.001-.001-.001-.006-.001-.001-.001-.001-.001-.004-.001-.001-.003-.001-.001-.002-.001-.001-.002-.001-.002-.001-.002-.001-.001-.001-.002-.002-.002-.002-.001-.002-.002-.001-.001-.002-.001-.001-.001-.001-.001-.001-.001-.001-.001-.001-.001-.002-.001-.002-.002-.001-.002-.001-.001-.003-.002-.001-.001-.001-.003-.001-.001-.001-.002-.001v1H18.812v-1zm-.73.14l-.096.093.696.718.095-.092-.695-.718zm-.096.093c-.02.02-.049.047-.073.074a.667.667 0 00-.107.148c-.079.154-.067.315-.067.322h1v-.02l-.002.017a.393.393 0 01-.092.213l.009-.008.028-.028-.696-.718zm-.216.368c-.368.981-.823 1.773-1.313 2.72l.889.46c.466-.902.965-1.775 1.36-2.828L17.77.84zm-1.293 2.687c-.29.468-.563.906-.83 1.251l.79.613c.306-.395.607-.881.89-1.338l-.85-.526zm-.83 1.251c-.316.408-.464.628-.62.78l.695.718c.225-.218.458-.553.716-.885l-.79-.613zm-.62.78c-.079.075-.132.11-.247.205-.097.08-.233.202-.328.387l.889.459c0-.001.008-.018.078-.076.052-.044.19-.147.303-.257l-.696-.718zm-.478.462c.003-.004 0 0-.009.006-.01.006-.012.006-.003.002a.4.4 0 01.178-.014.464.464 0 01.395.458h-1a.538.538 0 00.458.532.654.654 0 00.33-.043c.125-.048.252-.132.346-.223l-.695-.718zm.061-.048a1.907 1.907 0 01-.024 0 .413.413 0 01.24.147.419.419 0 01.093.26h-1a.582.582 0 00.406.557c.127.04.265.036.285.036v-1zm.157.048l-.143-.139-.144-.138-.695.718.143.139.143.138.696-.718zm-.287-.277c.037.035.05.066.052.069l-.015-.048c-.018-.06-.056-.209-.131-.354l-.889.459c.02.04.03.076.06.178.013.042.033.108.063.174a.77.77 0 00.165.24l.695-.718zm-.038-.104v-.002-.002-.001-.001-.001-.001-.001-.001-.002-.002-.002-.002-.001-.001-.001-.001-.001-.002-.002-.002-.002-.001-.001-.001-.001-.001-.001V5.6v-.002-.002-.001-.001-.001-.001-.001-.001-.001-.002-.002-.002-.002-.001-.001-.001-.001-.001-.001-.002-.002-.002-.002-.001-.001-.001-.001-.001-.001-.002-.002-.002-.002-.001-.001-.001-.001-.001-.001-.001-.001-.002-.002-.002-.002-.001-.001-.001-.001-.001-.001-.001-.001-.002-.002-.002-.002-.002-.001-.001-.001-.001-.001-.001-.001-.001-.001-.002-.002-.002-.002V5.5 5.5v-.001-.001-.001-.001-.001-.001-.001-.001-.001-.001-.001-.002-.002-.002-.002-.002-.002-.001-.001-.001-.001-.001-.001-.001-.001-.001-.001-.001-.001-.001-.001-.001-.001-.001-.001-.001-.001-.002-.002-.002-.002-.002-.002-.002-.002-.002-.002-.002-.002-.002-.002-.002-.002-.002-.002-.002-.002-.002-.002-.002-.002-.002-.002-.002-.001V5.4 5.4v-.001-.001-.001-.001-.001-.001-.001-.001-.001-.001-.001-.001-.001-.001-.002-.002-.002-.002-.002-.001-.001-.001-.001-.001-.001-.001-.001-.001-.002-.002-.002-.001-.001-.001-.001-.001-.001-.001-.001-.002-.002-.001-.001-.001-.001-.001-.001-.002-.002-.001-.001-.001-.001-.001-.001-.002-.002-.001-.001-.001-.001-.002-.002-.001-.001-.001-.002-.002-.001-.001-.001-.002-.001-.001-.001-.001-.002-.001V5.3 5.3v-.002-.001-.001-.001-.001-.002-.001-.001-.001-.002-.001-.001-.002-.001-.001-.001-.002-.001-.001-.002-.001-.001-.002-.001-.001-.002-.001-.002-.001-.001-.002-.001-.002-.001-.002-.001-.002-.001-.002-.001-.002-.001-.002-.001-.001-.001-.002-.001-.002-.002-.001-.001-.001-.002-.002-.001-.001-.001-.001-.001-.001-.001-.001-.001-.001-.001-.001-.001-.001-.001-.001-.002-.001-.001-.001-.001V5.2 5.2v-.001-.001-.002-.001-.002-.001-.002-.001-.001-.001-.001-.001-.001-.001-.001-.001-.001-.001h-1V5.64h1zm0-.462v-.001-.001-.001-.001-.001-.001-.001-.002-.001-.001-.001-.001-.001-.001-.001-.001-.001-.001-.001-.001-.001-.001-.001-.002-.001-.001-.001-.002-.001-.002-.001-.002-.001-.002-.001-.002-.001-.001-.002-.001-.001-.002-.001-.001-.001-.002-.001-.001-.001-.001-.002-.001-.001-.001-.001-.001-.002-.002-.001-.001-.001-.001V5.1v-.002-.002-.001-.001-.001-.001-.001-.001-.001-.001-.002-.002-.002-.002-.002-.002-.002-.002-.002-.002-.002-.002-.002-.002-.002-.002-.002-.002-.001-.001-.001-.001-.001-.001-.001-.001-.001-.002-.002-.002-.002-.001-.001-.001-.001-.001-.001-.002-.002-.002-.001-.001-.001-.001-.001-.002-.002-.001-.001-.001-.001-.001-.002-.002-.001-.001-.001-.001V5v-.002-.001-.001-.001-.001-.002-.002-.001-.001-.001-.002-.002-.001-.001-.001-.002-.002-.001-.001-.001-.002-.002-.001-.001-.002-.002-.001-.001-.001-.002-.002-.001-.001-.002-.002-.001-.002-.002-.001-.001-.002-.002-.001-.001-.002-.002-.001-.002-.002-.001-.001-.002-.002-.001-.002-.002-.001-.002-.002-.001-.001-.002-.002-.001-.002V4.9 4.9v-.002-.002-.001-.002-.002-.001-.002-.002-.001-.002-.002-.001-.002-.002-.001-.002-.002-.001-.002-.002-.001-.002-.001-.001-.002-.002-.001-.002-.002-.001-.002-.002-.001-.002-.002-.001-.002-.001-.001-.001-.002-.001-.001-.002-.002-.001-.002-.002-.001-.002-.002-.001-.002-.001-.001-.002-.002-.001-.002-.002-.001V4.8v-.002-.001-.002-.002-.001-.002-.002-.001-.002-.001-.001-.001-.002-.001-.001-.002-.002-.001-.002-.002-.001-.002-.002-.001-.002-.002-.001-.001-.002-.001-.001-.001-.002-.002-.001-.002-.002-.001-.002-.002-.001-.002-.002-.001-.001-.002-.002-.001-.002-.002-.001-.001-.002-.002-.001-.002-.002-.001-.001-.002-.002-.001-.001-.002V4.7v-.001-.001-.002-.002-.001-.001-.002-.002-.001-.001-.001-.002-.002-.001-.001-.001-.002-.002-.001-.001-.001-.002-.002-.001-.001-.001-.002-.002-.001-.001-.001-.001-.002-.002-.001-.001-.001-.001-.002-.002-.002-.001-.001-.001-.001-.002-.002-.002-.001-.001-.001-.001-.001-.002-.002h-1V5.178h1zm0-.555v-.001-.002-.002-.001-.002-.001-.002-.002-.001-.002-.001-.002-.002-.001-.002-.001-.002-.002-.001-.002-.001-.002-.002-.001-.002-.001-.002-.001-.002-.002-.001-.002-.001-.002-.001-.002-.001-.002-.001-.002-.002-.001-.002-.001-.002-.001-.002-.001-.002-.001-.002-.001-.002-.001-.002-.001-.002-.001-.002-.001-.002-.001-.002-.001-.002-.001-.002-.001-.002-.001-.002-.001-.002-.001-.002-.001-.002-.001-.002V4.5v-.001-.002-.001-.002-.001-.002-.001-.002-.001-.001-.002-.001-.002-.001-.002-.001-.001-.002-.001-.002-.001-.001-.002-.001-.002-.001-.002-.002-.002-.001-.001-.002-.001-.002-.001-.001-.002-.001-.002-.002-.002-.001-.001-.002-.001-.001-.002-.001-.001-.002-.001-.002-.002-.002-.002-.002-.002-.002-.002-.001-.002-.001-.001-.002-.001-.001-.002-.002-.002-.002-.001-.002-.001-.001-.002-.002-.001-.002-.002-.001-.002-.001-.001-.001-.002-.001-.001-.002-.002-.001-.001-.002-.002-.001-.002-.002-.001-.002-.002-.001-.001-.002-.002-.001-.001-.002-.002-.001-.001-.002-.002-.001-.001-.002-.002-.001-.001-.001-.002-.002-.001-.001-.001-.002-.002-.001-.001-.001-.001-.002-.002-.001-.001V4.3v-.001-.001-.002-.002-.001-.001-.001-.001-.001-.002-.002-.002-.001-.001-.001-.001-.001-.001-.002-.002-.002-.002-.001-.001-.001-.001-.001-.001-.001-.001-.002-.002-.002-.002-.002-.002-.002-.001-.001-.001-.001-.001-.001-.001-.001-.001-.001-.001-.001-.001-.001-.001-.001-.001-.001-.001-.001-.001-.001-.001-.001-.002-.002-.002-.002-.002-.001-.001-.001-.001-.001-.001-.001-.001-.001-.002V4.2v-.002-.001-.001-.001-.001-.001-.002-.002-.001-.001-.001-.001-.001-.002-.001-.001-.001-.001-.001-.002-.001-.001-.001-.001-.002-.001-.001-.001-.002-.001-.001-.001-.002-.001-.001-.001-.002-.001-.001-.002-.001-.001-.002-.001-.001-.002-.001-.002-.001-.002-.001-.001-.002-.001-.001-.001-.001-.001-.001-.002-.001-.002-.001-.001-.001-.002-.002-.001-.001-.001-.001-.001-.002-.002-.002V4.1 4.1v-.001-.001-.001-.001-.001-.001-.002-.001-.001-.001-.001-.001-.001-.002-.001-.001-.001-.001-.001-.001-.001-.001-.001-.001-.001-.001-.001-.001-.001h-1V4.624h1zm0-.555v-.001-.002-.001-.002-.002-.001-.002-.002-.001-.002-.002-.001-.002-.001-.002-.002-.001-.002-.002-.001-.002-.002-.001-.002-.002-.001-.002-.002-.002-.001-.002-.002-.001-.002-.002-.001-.002-.002-.001-.002V4v-.002-.001-.002-.002-.001-.002-.002-.002-.001-.002-.002-.002-.001-.002-.002-.001-.002-.002-.002-.001-.002-.002-.002-.001-.002-.002-.002-.001-.002-.002-.002-.002-.001-.002-.002-.002-.001-.002-.002-.002-.002-.001-.002-.002-.002-.001-.002-.002-.002-.002-.001-.002-.002-.002-.002-.002V3.9v-.002-.002-.002-.002-.001-.002-.002-.002-.002-.002-.001-.002-.002-.002-.002-.002-.001-.002-.002-.002-.002-.002-.001-.002-.002-.002-.002-.002-.002-.001-.002-.002-.002-.002-.002-.002-.002-.001-.002-.002-.002-.002-.002-.002-.002-.001-.002-.002-.002-.002-.002-.002-.002V3.8v-.001-.002-.002-.002-.002-.002-.002-.002-.002-.002-.002-.001-.002-.002-.002-.002-.002-.002-.002-.002-.002-.002-.002-.002-.002-.001-.002-.002-.002-.002-.002-.002-.002-.002-.002-.002-.002-.002-.002-.002-.002-.002-.002-.002-.002-.001-.002-.002-.002-.002V3.7v-.002-.002-.002-.002-.002-.002-.002-.002-.002-.002-.002-.002-.002-.002-.002-.002-.002-.002-.002-.002-.002-.002-.002-.002-.002-.002-.002-.002-.002-.002-.002-.002-.002-.002-.002-.002-.002-.002-.002-.002-.002-.002-.002-.002-.002-.002-.002-.002-.002V3.6v-.002-.002-.002-.002-.002-.002-.003-.002-.002-.002-.002-.002-.002-.002-.002-.002-.002-.002-.002-.002-.002-.002-.002-.002-.002-.002-.002-.003-.002-.002-.002-.002-.002-.002-.002-.002-.002-.002-.002-.002-.002-.002-.002-.003-.002-.002-.002-.002V3.5v-.002-.002-.002-.002-.002-.002-.002-.003-.002-.002-.002-.002-.002-.002-.002-.002-.002-.002-.002-.003-.002-.002-.002-.002-.002-.002-.002-.002-.002-.003-.002-.002-.002-.002-.002-.002-.002-.002-.002-.003-.002-.002-.002-.002-.002-.002-.002V3.4v-.003-.002-.002-.002-.002-.002-.002-.002-.003-.002-.002-.002-.002-.002-.002-.002-.002-.003-.002-.002-.002-.002-.002-.002-.003-.002-.002-.002-.002-.002-.002-.002-.003-.002-.002-.002-.002-.002-.002-.002-.003-.002-.002-.002-.002-.002V3.3v-.003-.002-.002-.002-.002-.002-.002-.003-.002-.002-.002-.002-.002-.002-.003-.002-.002-.002-.002-.002-.002-.003-.002-.002-.002-.002-.002-.003-.002-.002-.002-.002-.002-.002-.003-.002-.002-.002-.002-.002-.003-.002-.002-.002-.002V3.2v-.002-.003-.002-.002-.002-.002-.002-.003-.002-.002-.002-.002-.002-.003-.002-.002-.002-.002-.002-.003-.002-.002-.002-.002-.002-.002-.003-.002-.002-.002-.002-.002-.003-.002-.002-.002-.002-.002-.003-.002-.002-.002-.002-.002-.003-.002V3.1v-.002-.002-.002-.003-.002-.002-.002-.002-.002-.003-.002-.002-.002-.002-.002-.003-.002-.002-.002-.002-.002-.003h-1V4.068h1zm0-1.017V3.05v-.002-.002-.002-.002-.003-.002-.002-.002-.002-.002-.002-.003-.002-.002-.002-.002-.002-.002-.003-.002-.002-.002V3v-.002-.002-.002-.002-.003-.002-.002-.002-.002-.002-.002-.002-.002-.002-.003-.002-.002-.002-.002-.002-.002-.002-.002-.002-.002-.002-.002-.002-.003-.002-.002-.002-.002-.002-.002-.002-.002-.002-.002-.002-.002-.002-.002-.002-.002-.002-.002V2.9v-.002-.002-.002-.002-.002-.002-.002-.002-.002-.002-.002-.002-.002-.002-.002-.002-.002-.002-.002-.002-.002-.002-.002-.002-.002-.002-.002-.002-.002-.002-.002-.002-.002-.001-.002-.002-.002-.002-.002-.002-.002-.002-.002-.002-.002-.002-.002-.001-.002-.002V2.8v-.002-.002-.002-.002-.002-.002-.001-.002-.002-.002-.002-.002-.002-.002-.002-.001-.002-.002-.002-.002-.002-.002-.001-.002-.002-.002-.002-.002-.002-.001-.002-.002-.002-.002-.002-.001-.002-.002-.002-.002-.002-.001-.002-.002-.002-.002-.001-.002-.002-.002-.002-.001-.002V2.7v-.002-.002-.001-.002-.002-.002-.002-.001-.002-.002-.002-.001-.002-.002-.002-.001-.002-.002-.002-.001-.002-.002-.002-.001-.002-.002-.002-.001-.002-.002-.002-.001-.002-.002-.002-.001-.002-.002-.001-.002-.002-.001-.002-.002-.002-.001-.002-.002-.001-.002-.002-.001-.002-.002-.001-.002-.002-.001-.002-.002-.001-.002-.002-.001-.002-.002-.001-.002-.002-.001-.002-.002-.001-.002-.002-.001-.002-.001-.002-.002-.001-.002-.002-.001-.002-.001-.002-.002-.001-.002-.001-.002-.002-.001-.002-.001-.002-.002-.001-.002-.001-.002-.001-.002-.002-.001-.002-.001-.002-.001-.002-.002-.001-.002-.001-.002-.001-.002-.001V2.5 2.5v-.002-.002-.001-.002-.001-.002-.001-.002-.001-.002-.001-.002-.001-.002-.001-.002-.001-.002-.001-.002-.001-.002-.001-.002-.001-.002-.001-.002-.001-.002-.001-.002-.001-.001-.002-.001-.002-.001-.002-.001-.002-.001-.002-.001-.001-.002-.001-.002-.001-.002-.001-.002-.002-.002-.001-.002-.001-.001-.002-.001-.002-.001-.001-.002-.001V2.4 2.4v-.001-.002-.001-.002-.001-.001-.002-.001-.002-.002-.002-.001-.001-.002-.001-.001-.002-.001-.001-.002-.001-.002-.002-.002-.002-.002-.002-.002-.002-.002-.002-.001-.002-.001-.001-.002-.001-.001-.002-.002-.001-.002-.001-.001-.002-.002-.001-.002-.001-.001-.002-.002-.001-.002-.002-.001-.002-.002-.001-.002-.002-.001V2.3v-.002-.001-.001-.002-.002-.001-.002-.002-.001-.001-.002-.002-.001-.001-.002-.002-.001-.001-.002-.002-.001-.001-.001-.002-.002-.001-.001-.001-.002-.002-.001-.001-.001-.002-.002-.002-.001-.001-.001-.002-.002-.001-.001-.001-.001-.001-.002-.002-.002-.001-.001-.001-.001-.001-.002-.002h-1V3.051h1zm0-.832v-.002-.001-.001-.001-.001-.001-.002-.002-.002-.001-.001-.001-.001V2.2v-.002-.002-.001-.001-.001-.002-.002-.001-.001-.001-.001-.002-.002-.001-.001-.001-.001-.002-.002-.001-.001-.001-.002-.002-.001-.001-.001-.002-.002-.001-.001-.002-.002-.001-.001-.002-.002-.001-.001-.002-.002-.001-.001-.002-.002-.001-.001-.002-.002-.001-.002-.002-.001-.002-.002-.001-.001-.002-.002-.001-.002-.002-.001-.002-.002-.001V2.1v-.002-.001-.002-.002-.001-.002-.001-.001-.002-.002-.001-.002-.002-.001-.002-.001-.001-.002-.002-.001-.002-.001-.001-.002-.002-.001-.002-.001-.001-.002-.002-.001-.002-.001-.001-.002-.001-.001-.002-.002-.002-.002-.001-.002-.001-.001-.002-.001-.001-.002-.001-.001-.002-.002-.002-.002-.002-.002-.001-.002-.001-.001-.002-.001V2v-.002-.001-.001-.002-.001-.001-.002-.001-.001-.002-.001-.001-.002-.001-.001-.002-.001-.001-.002-.001-.002-.002-.002-.002-.002-.002-.002-.002-.002-.001-.001-.002-.001-.001-.002-.001-.001-.002-.001-.001-.002-.001-.002-.002-.002-.002-.002-.001-.001-.002-.001-.001-.002-.001-.001-.002-.001-.001-.002-.001-.002-.002-.002-.001-.001-.002-.001V1.9v-.002-.001-.001-.002-.001-.002-.002-.002-.002-.002-.001-.001-.002-.001-.001-.002-.001-.001-.002-.001-.002-.002-.002-.002-.002-.001-.001-.002-.001-.001-.002-.001-.001-.002-.001-.002-.002-.002-.002-.002-.002-.002-.001-.001-.002-.001-.001-.002-.001-.001-.002-.001-.001-.002-.001-.001-.002-.001-.001-.002-.001-.001-.002-.001-.001V1.8 1.8v-.001-.002-.001-.001-.002-.001-.001-.002-.001-.001-.002-.001-.001-.002-.001-.001-.002-.001-.001-.002-.001-.001-.002-.001-.001-.002-.002-.002-.002-.001-.002-.001-.001-.002-.001-.001-.002-.002-.002-.002-.001-.002-.001-.001-.002-.002-.001-.002-.001-.001-.002-.002-.002-.002-.001-.002-.002-.001-.002-.001-.001-.002-.002-.001-.002V1.7 1.7v-.002-.001-.001-.002-.002-.001-.002-.002-.001-.002-.002-.001-.002-.002-.001-.001-.002-.001-.001-.001-.002-.002-.001-.002-.002-.001-.001-.002-.002-.001-.002-.002-.001-.001-.002-.002-.001-.001-.002-.002-.001-.001-.002-.002-.001-.001-.001-.002-.002-.001-.001-.001-.002-.002-.001-.001-.001-.002-.002-.001-.001-.001-.002-.002-.002V1.6 1.6v-.001-.002-.002-.001-.001-.001-.001-.001-.002-.002-.002-.001-.001-.001-.001-.002-.002-.002-.001-.001h-1V2.219h1zm0-.647V1.57 1.57v-.002-.002-.001-.002-.001-.002-.002-.001-.002-.001-.002-.002-.001-.002-.001-.002-.002-.001-.002-.001-.002-.001-.002-.002-.001-.002-.001-.002-.001-.002-.002-.001-.002-.001-.002-.001-.002-.001-.002-.001-.002-.002-.001-.002-.001-.002-.001-.002-.001-.002-.001-.002-.001-.002-.001-.002-.001-.002-.001-.002-.001-.002-.001-.002-.001-.002-.001-.002-.001-.002-.001-.002-.001-.002-.001-.001-.002-.001-.002-.001-.002-.001-.002-.001-.001-.002-.001-.002-.001-.002-.001-.002-.001-.001-.002-.001-.002-.001-.001-.002-.001-.002-.001-.001-.002-.001-.002-.001-.001-.002-.001V1.4 1.4v-.001-.002-.001-.002-.002-.002-.001-.001-.002-.001-.001-.002-.001-.001-.002-.001-.002-.002-.002-.002-.002-.002-.002-.002-.002-.002-.001-.002-.001-.001-.002-.001-.001-.002-.002-.001-.002-.001-.001-.002-.002-.001-.002-.001-.001-.002-.002-.001-.002-.002-.001-.002-.002-.001-.002-.002-.001-.002-.002-.001-.001V1.3v-.002-.001-.002-.002-.001-.001-.002-.002-.001-.001-.002-.002-.001-.001-.002-.002-.001-.001-.001-.002-.002-.001-.001-.001-.002-.002-.001-.001-.001-.002-.002-.002-.001-.001-.001-.002-.002-.001-.001-.001-.001-.001-.002-.002-.002-.001-.001-.001-.001-.001-.002-.002-.002-.001-.001-.001-.001-.001-.001-.001-.002-.002-.002-.002-.002-.001-.001-.001-.001-.001V1.2 1.2v-.001-.001-.001-.001-.001-.001-.001-.001-.001-.001-.001-.001-.001-.001-.001-.001-.001-.001-.001-.001-.001-.001-.001-.001-.001-.001-.001-.001-.001-.001-.001-.001-.001-.001-.001-.001-.001-.001-.002-.002-.002-.001-.001-.001-.001-.001-.001-.001-.001-.002-.002-.001-.001-.001-.001-.001-.001-.002-.002-.001-.001-.001-.001-.002-.001-.001-.001-.001-.001-.002-.001-.001-.001-.002-.001-.001-.001-.001-.002-.001-.001-.002-.001-.001-.001V1.1 1.1v-.001-.002-.001-.001-.002-.001-.002-.001-.001-.002-.001-.002-.001-.002-.001-.002-.001-.002-.001-.001-.001-.002-.001-.001-.001-.002-.001-.001-.001-.001-.001-.002-.002-.002-.002-.002-.001-.001-.001-.001-.001-.001-.001-.002-.001-.001-.001-.001-.001-.001-.001-.001-.001-.001-.001-.001-.001-.002-.001-.001-.001-.001-.001-.001-.001h-1V1.573h1zm0-.555a.816.816 0 00-.034-.22c-.014-.047-.03-.096-.041-.128a1.439 1.439 0 01-.025-.073c-.006-.023.004.003.004.051h-1c0 .095.022.178.034.22.013.048.03.097.041.128.013.038.02.058.024.074.007.022-.003-.003-.003-.052h1zm-.248-.729L14.05.15l-.144-.138-.695.718.143.139.143.138.696-.718zm-.287-.277a.788.788 0 00-.232-.154c-.061-.026-.122-.045-.153-.055a.757.757 0 01-.056-.02c-.004-.001.025.01.06.044l-.696.718c.082.08.17.126.233.153.06.027.121.046.152.056.04.013.052.017.057.02.003.001-.026-.01-.06-.044l.695-.718zm-.634-.317A9.327 9.327 0 0011.459-.5v1c.622 0 1.159.086 1.624.176l.19-.982zM11.459-.5c-.772 0-1.434.023-1.956.071-.498.046-.94.12-1.222.256l.436.9c.1-.048.373-.113.878-.16C10.075.523 10.703.5 11.459.5v-1zM8.28-.173c-.157.076-.519.232-.704.59l.888.46.007-.008a.237.237 0 01.037-.03 1.63 1.63 0 01.208-.112l-.436-.9zm-.608.461c-.06.06-.117.121-.164.185a.763.763 0 00-.127.257.553.553 0 00.12.513.566.566 0 00.424.182v-1c.037 0 .19.006.318.147.145.16.123.342.106.408-.016.064-.042.095-.034.084a.521.521 0 01.053-.058L7.673.288zm.158 1.128c.43.083.653.23.733.347l.824-.567C9.086.757 8.545.536 8.02.434l-.19.982zm.7.293l.096.185.889-.459-.096-.185-.888.459zm.193.315a.247.247 0 01-.055-.075l.014.048c.017.067.05.221.107.385l.945-.326c-.039-.113-.053-.19-.084-.309-.021-.083-.07-.286-.232-.442l-.695.719zm.066.358c.063.184.068.374.068.762h1c0-.352.005-.717-.123-1.088l-.945.326zm.068.762V4.623h1v-.002-.002-.002-.002-.003-.002-.002-.002-.002V4.6 4.6v-.002-.002-.002-.003-.002-.002-.002-.003-.002-.002-.002-.003-.002-.002-.002-.003-.002-.002-.003-.002-.002-.002-.003-.002-.002-.003-.002-.002-.003-.002-.002-.003-.002-.002-.003-.002-.002-.003-.002-.003-.002-.002V4.5v-.002-.002-.003-.002-.003-.002-.002-.003-.002-.003-.002-.003-.002-.002-.003-.002-.003-.002-.003-.002-.003-.002-.003-.002-.002-.003-.002-.003-.002-.003-.002-.003-.002-.003-.002-.003-.002-.003-.002-.003-.003-.002-.003-.002-.003-.002-.003-.002-.003-.002-.003-.003-.002-.003-.002-.003-.002-.003-.003-.002-.003-.002-.003-.003-.002-.003-.002-.003-.003-.002-.003-.003-.002-.003-.003-.002-.003-.002V4.3v-.003-.002-.003-.003-.002-.003-.003-.002-.003-.003-.003-.002-.003-.003-.002-.003-.003-.002-.003-.003-.003-.002-.003-.003-.003-.002-.003-.003-.002-.003-.003-.003-.002-.003-.003-.003V4.2v-.002-.003-.003-.003-.002-.003-.003-.003-.003-.002-.003-.003-.003-.003-.002-.003-.003-.003-.003-.002-.003-.003-.003-.003-.003-.002-.003-.003-.003-.003-.003-.002-.003-.003-.003-.003-.003-.003-.003-.002-.003-.003-.003-.003-.003-.003-.003-.002-.003-.003-.003-.003-.003-.003-.003-.003-.003-.003-.002-.003-.003-.003-.003-.003-.003-.003-.003-.003-.003V4v-.003-.003-.003-.002-.003-.003-.003-.003-.003-.003-.003-.003-.003-.003-.003-.003-.003-.003-.003-.003-.003-.003-.003-.003-.003-.003-.003-.003-.003-.003-.003-.003-.003-.003-.003-.003-.003-.003-.003-.003-.003-.003-.003-.003-.003-.003-.003-.003-.004-.003-.003-.003-.003-.003-.003-.003-.003-.003-.003-.003-.003-.003-.003-.003-.003V3.8v-.003-.003-.003-.003-.003-.003-.003-.003-.003-.003-.003-.004-.003-.003-.003-.003-.003-.003-.003-.003-.004-.003-.003-.003-.003-.003-.003-.003-.003-.004-.003-.003V3.7v-.003-.003-.003-.003-.004-.003-.003-.003-.003-.003-.003-.004-.003-.003-.003-.003-.003-.003-.004-.003-.003-.003-.003-.003-.004-.003-.003-.003-.003-.003V3.6v-.003-.003-.003-.003-.003-.004-.003-.003-.003-.003-.003-.004-.003-.003-.003-.003-.004-.003-.003-.003-.003-.003-.004-.003-.003-.003-.003-.004-.003-.003-.003V3.5v-.004-.003-.003-.003-.003-.004-.003-.003-.003-.003-.004-.003-.003-.003-.004-.003-.003-.003-.003-.004-.003-.003-.003-.003-.004-.003-.003-.003-.004-.003V3.4v-.003-.003-.004-.003-.003-.003-.004-.003-.003-.003-.004-.003-.003-.003-.003-.004-.003-.003-.003-.004-.003-.003-.003-.004-.003-.003-.003-.004-.003-.003V3.3v-.004-.003-.003-.003-.003-.004-.003-.003-.003-.004-.003-.003-.003-.004-.003-.003-.003-.004-.003-.003-.003-.004-.003-.003-.003-.004-.003-.003-.003-.004V3.2v-.003-.003-.004-.003-.003-.003-.004-.003-.003-.003-.004-.003-.003-.003-.004-.003-.003h-1zm0 1.48c0 .194-.02.351-.042.504-.021.142-.053.327-.053.512h1c0-.092.015-.184.042-.366a4.27 4.27 0 00.053-.65h-1zM8.763 5.64c0 .166-.057.213-.04.196l.696.718c.209-.201.344-.524.344-.914h-1zm-.136.326a2.335 2.335 0 00-.071.153l-.02.044-.004.01a.394.394 0 01.1-.114.422.422 0 01.249-.086v1a.587.587 0 00.54-.34c.022-.044.044-.097.053-.119l.042-.09-.889-.458zm.254.507h-.5v-.001-.001-.002a.541.541 0 01.005-.067.418.418 0 01.399-.337v1a.582.582 0 00.587-.493.61.61 0 00.009-.09v-.005-.002-.001l-.5-.001zm-.096-.408a.723.723 0 00-.297.065l-.039.015c-.033.013-.038.013-.046.013v1c.183 0 .321-.047.408-.08l.047-.02a.955.955 0 01.016-.005l-.006.001a.325.325 0 01-.083.01v-.999zm-.382.093c.027 0 .045.003.052.004l.009.002a.418.418 0 01-.095-.05c-.003-.003-.003-.003 0 0l-.696.718c.098.094.22.168.321.218a.98.98 0 00.41.108v-1zm-.164-.135a.64.64 0 01-.251-.242l-.889.459c.147.283.418.544.704.683l.436-.9zm-.347-.372c-.137-.132-.298-.357-.477-.702l-.888.458c.203.394.423.725.669.962l.696-.718zm-.477-.702c-.1-.195-.245-.424-.345-.598a3.595 3.595 0 01-.295-.63l-.945.325c.11.319.245.58.373.803.139.242.233.383.324.558l.888-.458zm-.668-1.295l-.191-.37-.889.46.191.369.889-.459zm-.191-.37a12.393 12.393 0 01-.46-.978l-.924.381c.2.483.398.869.495 1.056l.889-.459zm-.46-.978c-.1-.242-.199-.458-.294-.665a17.352 17.352 0 01-.279-.63l-.924.382c.1.241.199.458.294.665.096.209.188.409.279.63l.924-.382zM5.506.973c-.135-.26-.278-.398-.384-.5l-.695.718c.049.048.078.076.105.11.025.03.053.07.085.13l.888-.458zm-.731-.64h-.096v1h.096v-1zm-.096.5l.348-.36-.002-.001L5.024.47A.784.784 0 004.89.366.751.751 0 004.488.24v1a.306.306 0 01-.14-.034.044.044 0 01-.008-.007.298.298 0 01-.008-.007l.347-.36zM4.488.24c.055 0 .092.013.1.015L4.562.243c-.02-.009-.067-.032-.12-.051a.709.709 0 00-.241-.045v1a.295.295 0 01-.1-.015l.025.012c.02.009.066.032.119.051.054.02.139.045.242.045v-1zM4.202.147H.764v1h3.438v-1zm-3.438 0c-.455 0-.794.11-1.016.326l.695.718c-.032.031.012-.044.32-.044v-1zM-.252.473l-.096.092.696.719.095-.093-.695-.718zM0 .925h-.5V1.11h1v-.001-.001-.001-.001-.001-.001-.001V1.1 1.1v-.001-.001-.001-.001-.001-.001-.001-.001-.001-.001-.001-.001-.001-.001-.001-.001-.001-.001-.001-.001-.001-.001-.001-.001-.001-.001-.001-.001-.001-.001-.001-.001-.001-.001-.001-.001-.001-.001-.001-.001-.001-.001-.001-.001-.001-.001-.001-.001-.001-.001-.001-.001-.001-.001-.001-.001-.001-.001-.001-.001-.001-.001-.001-.001-.001-.001-.001-.001-.001-.001-.001-.001-.001-.001-.001-.001-.001-.001-.001-.001-.001-.001-.001-.001-.001-.001-.001-.001-.001-.001-.001-.001-.001-.001-.001-.001-.001-.001V1 1 .998.997.996.995.994.993.992.991.99.99.988.987.986.985.984.983.982.981.98.98.978.977.976.975.974.973.972.971.97.97.968.967.966.965.964.963.962.961.96.96.958.957.956.955.954.953.952.951.95.95.948.947.946.945.944.943.942.941.94.94.938.937.936.935.934.933.932.931.93.93.928.927.926.925.924H0zm-.5.185c0 .047-.001.138.022.251.023.112.066.225.13.348L.54 1.25a.39.39 0 01-.038-.091C.5 1.156.5 1.155.5 1.109h-1zm.136.567C.122 2.806.703 3.931 1.275 5.037l.888-.458C1.59 3.466 1.024 2.372.555 1.282l-.919.395zm1.647 3.377C1.86 6.076 2.442 7.017 2.816 7.65l.861-.508c-.39-.66-.952-1.568-1.523-2.58l-.87.49zm1.561 2.64c.233.315.438.625.66.946.216.315.443.634.7.933l.759-.653a9.873 9.873 0 01-.636-.847c-.209-.303-.433-.64-.678-.973l-.805.594zm1.36 1.879c.49.567.732.89.795 1.013l.888-.46c-.128-.247-.458-.664-.924-1.206l-.758.653zm.891 1.142l.227.22.155.15.696-.718a517.27 517.27 0 01-.155-.15l-.227-.22-.696.718zm.382.37l.287.278.695-.719-.286-.277-.696.718zm.287.278c.192.186.5.485.913.785l.588-.81a7.234 7.234 0 01-.806-.694l-.695.719zm.913.785c.407.295.908.586 1.38.86l.502-.865c-.484-.281-.937-.545-1.294-.804l-.588.809zm1.38.86c.532.31 1.16.51 1.72.69l.308-.951c-.585-.189-1.104-.359-1.526-.604l-.503.865zm1.74.697c.693.191 1.349.306 2.028.196l-.16-.987c-.466.075-.956.005-1.6-.173l-.267.963zm1.948.203h1.433v-1h-1.433v1zm1.433 0c.431 0 .743-.155 1.016-.419l-.696-.718c-.109.106-.179.136-.32.136v1zm1.016-.419l.095-.092-.695-.719-.096.093.696.718zm.248-.451a.39.39 0 01-.1.262.855.855 0 00.035-.035.64.64 0 00.136-.243.609.609 0 00.024-.17h-1a.394.394 0 01.1-.261l.005-.005a.633.633 0 00-.176.282.612.612 0 00-.024.17h1zm.095-.185v-.001-.001-.001-.001-.001-.001-.001-.001-.002-.001-.001-.001-.001-.001-.001-.001-.001-.001-.001-.001-.001-.001-.001-.001-.001-.001-.001-.001-.001-.001-.001-.002-.001-.001-.001-.001-.001-.001-.001-.001-.001-.001-.001-.001-.001-.001-.001-.001-.001-.001-.001-.001-.001-.001-.001-.002-.001-.001-.002-.001-.001-.002-.001-.001-.002-.001-.001-.002-.001-.001-.001-.001-.001-.002-.001-.001-.001-.001-.001-.001-.001-.001-.001-.001-.001-.002-.001-.002-.001-.001-.001-.001-.001-.001-.002-.001-.002-.001-.001-.001-.002-.001-.001-.001-.002-.001-.001-.001-.001-.001-.002-.001-.001-.001-.001-.001-.002-.002-.002-.002-.002-.002-.002-.002-.002-.002-.002-.002-.001-.001-.001-.001-.001-.002-.002-.001-.001-.001-.002-.002-.001-.001-.001-.002-.001-.002-.002-.001-.002-.001-.002-.001-.001-.001-.001-.002-.002-.001-.001-.002-.001-.002-.001-.002-.001-.002-.001-.001-.002-.001-.002-.001-.001-.002-.001-.001-.002-.001-.001-.002-.001-.001-.002-.001-.001-.001-.002-.001-.001-.002-.001-.001-.001-.002-.002-.001-.001-.002-.001-.001-.001-.001-.002-.002-.001-.001-.002-.002-.001-.001-.001-.001-.002-.002-.001-.001-.001-.001-.002-.002-.002-.001-.001-.001-.001-.001-.002-.002-.002-.001-.001-.001-.001-.001-.001-.001-.001-.001-.001-.002-.002-.002-.002-.002-.002-.002-.002-.002-.001-.001-.001-.001-.001-.001-.001-.001-.001-.001-.002-.002-.002-.002-.002-.002-.002-.002-.002-.002-.001-.001-.001-.001-.001-.001-.001-.001-.002-.002-.002-.002-.001-.001h-1V12.852h1zm0-.37c0-.388.005-.578.068-.762l-.945-.325c-.128.37-.123.735-.123 1.087h1zm.068-.762c.059-.17.089-.315.11-.41.023-.1.036-.139.053-.17l-.889-.46a1.663 1.663 0 00-.138.407c-.026.114-.044.2-.081.308l.945.325zm.163-.58c.031-.061.059-.1.084-.131.028-.034.057-.062.106-.11l-.696-.718c-.105.102-.249.24-.383.5l.889.458zm.19-.24l.131-.128a11.89 11.89 0 01.059-.057l-.347-.36-.348-.359v.001c-.002 0-.003.002-.004.003l-.012.012-.043.042-.132.127.696.718zm-.157-.045h.095v-1h-.095v1zm.313-.05a.124.124 0 01-.047.014c-.002 0 .006 0 .024.005a.32.32 0 01.126.075l.696-.718a1.32 1.32 0 00-.543-.318.967.967 0 00-.691.042l.435.9zm.18.155c.231.15.47.381.623.603l.824-.567a3.362 3.362 0 00-.905-.876l-.542.84zm.623.603c.226.328.555.644.923 1l.696-.718c-.395-.382-.639-.622-.795-.849l-.824.567zm.923 1c.189.183.364.353.518.49.144.127.308.262.472.341l.436-.9a1.454 1.454 0 01-.244-.19 16.53 16.53 0 01-.486-.459l-.696.719zm.936.801l.287.185.542-.84-.286-.185-.543.84zm.34.215c.194.094.412.2.733.303l.307-.951a4.262 4.262 0 01-.604-.252l-.436.9zm.733.303c.363.117.617.117.822.117v-1c-.177 0-.305 0-.515-.068l-.307.951zm.836.117l3.247-.093-.029-1-3.246.093.028 1zm3.233-.092c.382 0 .744-.12.982-.235l-.436-.9a1.35 1.35 0 01-.546.135v1zm.982-.235c.114-.056.265-.14.382-.282a.825.825 0 00.186-.538h-1c0 .003 0-.011.007-.034a.203.203 0 01.036-.065c.013-.015.02-.02.013-.014a.493.493 0 01-.06.033l.436.9zm.568-.82v-.001-.001-.001-.001-.001-.001-.002-.001-.001-.002-.001-.001-.001-.001-.001-.001-.001-.002-.001-.002-.001-.001-.001-.002-.002-.001-.001-.001-.001-.001-.002-.002-.002-.002-.002-.002-.001-.001-.001-.001-.001-.002-.002-.001-.001-.001-.002-.002-.001-.002-.002-.001-.002-.001-.002-.002-.001-.002-.001-.002-.001-.002-.001-.002-.001-.002-.001-.002-.001-.002-.001-.002-.001-.001-.002-.001-.002-.001-.002-.001-.001-.002-.001-.001-.002-.001-.002-.001-.001-.002-.001-.001-.002-.001-.002-.001-.001-.002-.001-.001-.002-.001-.001-.002-.001-.001-.002-.001-.001-.001-.002-.001-.001-.002-.001-.001-.002-.001-.001-.002-.001-.001-.002-.001-.001-.001-.002-.001-.001-.002-.001-.001-.002-.001-.001-.001-.002-.001-.001-.002-.001-.001-.002-.001-.001-.001-.002-.001-.001-.002-.001-.001-.002-.001-.001-.001-.002-.001-.001-.002-.001-.001-.002-.001-.001-.002-.001-.001-.002-.001-.001-.002-.001-.001-.002-.001-.001-.002-.001-.001-.002-.001-.002-.001-.001-.002-.001-.001-.002-.001-.002-.001-.001-.002-.001-.002-.001-.002-.001-.001-.002-.001-.002-.001-.002-.001-.002-.001-.002-.001-.002-.001-.002-.001-.001-.001-.002-.001-.002-.001-.001-.001-.002-.001-.001-.001-.002-.001-.001-.001-.001-.001-.002-.001-.001-.001-.001-.001-.001-.001-.002-.002-.002-.002-.001-.001-.001-.001-.001-.001-.001-.002-.002-.001-.001-.001-.002-.001-.002-.001-.002-.001-.002-.001-.001-.001-.001-.001-.002-.001-.001-.001-.002-.001h-1V12.852h1zm-.152-.73a.566.566 0 01-.057-.061c-.007-.009-.002-.005.004.01a.201.201 0 01.013.052l.001.008v-.019h-1c0 .051-.003.185.062.341.06.145.16.27.281.388l.696-.718zM18.62.24h-.191v1h.19v-1z" fill="#fff" mask="url(#a)"/></svg>